<svg width="64" height="64" viewBox="0 0 64 64" fill="none" xmlns="http://www.w3.org/2000/svg">
<circle cx="32" cy="32" r="32" fill="#143784"/>
<path d="M44.8535 31.6465L37.3535 24.1465C37.1582 23.9512 36.8418 23.9512 36.6465 24.1465C36.4512 24.3418 36.4512 24.6582 36.6465 24.8535L43.293 31.5H21.5C21.2236 31.5 21 31.7236 21 32C21 32.2764 21.2236 32.5 21.5 32.5H43.293L36.6465 39.1465C36.4512 39.3418 36.4512 39.6582 36.6465 39.8535C36.7441 39.9511 36.8721 40 37 40C37.1279 40 37.2559 39.9511 37.3536 39.8535L44.8535 32.3535C45.0488 32.1582 45.0488 31.8418 44.8535 31.6465Z" fill="white"/>
</svg>
